<svg width="36" height="48" viewBox="0 0 36 48" fill="none" xmlns="http://www.w3.org/2000/svg">
<path d="M6.51168 13.8907L8.89085 16.6487L30.6446 4.12769L25.854 2.75792L23.4748 0L1.72107 12.521L6.51168 13.8907Z" fill="white"/>
<path d="M2.00256 12.4927L6.63641 13.8165L8.9372 16.4871L19.6527 10.3185L30.3636 4.15455L25.7297 2.82615L23.4289 0.160156L12.7134 6.32871L2.00256 12.4927Z" fill="#CAD2DA"/>
<path d="M23.4287 0.160156V8.14434L30.3633 4.15455L25.7295 2.82615L23.4287 0.160156Z" fill="#B2C4D3"/>
<path d="M25.72 6.83533L30.363 4.15555L25.72 2.82715V6.83533Z" fill="#BCCDD8"/>
<path d="M30.6442 4.12793L32.2487 33.2148L8.08354 47.1239L5.44156 44.0627L0.116089 42.5412L1.72065 12.5212L6.51126 13.891L8.89043 16.6489L30.6442 4.12793Z" fill="#EEF0F3"/>
<path d="M8.08354 47.1232L5.44156 44.0619L0.116089 42.5405L1.72065 12.5205L6.51126 13.8903L8.89043 16.6482L8.08354 47.1232Z" fill="#BCCDD8"/>
<path d="M8.084 47.1236L5.44202 44.0623L6.51172 13.8906L8.89089 16.6485L8.084 47.1236Z" fill="#B2C4D3"/>
<path d="M25.5267 21.2959L22.1562 23.2356V19.3516L18.3753 21.5257V25.4098L15.0002 27.3541V31.7025L18.3753 29.7581V33.6468L22.1562 31.468V27.584L25.5267 25.6442V21.2959Z" fill="#00897C"/>
<path d="M9.0059 16.488L8.08374 47.1239L8.86757 16.4834L9.0059 16.488Z" fill="white"/>
<path d="M24.2404 10.0246C24.2404 9.73963 24.0422 9.62472 23.7932 9.76721C23.5442 9.9097 23.3459 10.2544 23.3459 10.5394C23.3459 10.8244 23.5442 10.9393 23.7932 10.7968C24.0376 10.6543 24.2404 10.3096 24.2404 10.0246Z" fill="#4C4C4C"/>
<path d="M24.1524 10.0747C24.1524 9.84485 23.991 9.75292 23.7927 9.86783C23.5945 9.98274 23.4331 10.2631 23.4331 10.493C23.4331 10.7228 23.5945 10.8147 23.7927 10.6998C23.991 10.5849 24.1524 10.3045 24.1524 10.0747Z" fill="#ADBCC1"/>
<path d="M23.9867 10.1716C23.9867 10.0521 23.8991 10.0015 23.793 10.0613C23.687 10.1257 23.604 10.2727 23.5994 10.3923C23.5994 10.5118 23.6824 10.5623 23.793 10.5026C23.8991 10.4428 23.9821 10.2957 23.9867 10.1716Z" fill="#14161A"/>
<path d="M16.4607 14.5012C16.4607 14.2162 16.2624 14.1013 16.0134 14.2438C15.769 14.3863 15.5662 14.731 15.5662 15.016C15.5662 15.301 15.7644 15.4159 16.0134 15.2734C16.2578 15.1309 16.4607 14.7862 16.4607 14.5012Z" fill="#4C4C4C"/>
<path d="M16.377 14.5473C16.377 14.3175 16.2156 14.2256 16.0174 14.3405C15.8191 14.4554 15.6577 14.7358 15.6577 14.9656C15.6577 15.1954 15.8191 15.2874 16.0174 15.1725C16.2156 15.0575 16.377 14.7772 16.377 14.5473Z" fill="#ADBCC1"/>
<path d="M16.2077 14.648C16.2077 14.5239 16.1201 14.478 16.0186 14.5377C15.9126 14.5975 15.8296 14.7446 15.8296 14.8687C15.8296 14.9882 15.9126 15.0387 16.0186 14.979C16.1247 14.9192 16.2077 14.7675 16.2077 14.648Z" fill="#14161A"/>
<g style="mix-blend-mode:multiply">
<path d="M18.6983 20.7905C18.3248 20.7905 18.0159 20.694 17.7761 20.5699C16.4897 19.8988 15.7658 17.7154 15.8903 14.8748C15.8903 14.8012 15.9594 14.7461 16.0286 14.7461C16.1024 14.7461 16.1623 14.8104 16.1577 14.8839C16.0378 17.6189 16.7064 19.7057 17.9006 20.3308C18.6429 20.717 19.5697 20.5147 20.5841 19.7471C23.5811 17.4718 23.7379 12.4202 23.6687 10.3518C23.6687 10.2782 23.724 10.2139 23.7978 10.2139C23.8808 10.2139 23.9361 10.269 23.9361 10.3426C24.0237 12.8477 23.7148 15.0035 23.0232 16.7593C22.3316 18.506 21.4048 19.4667 20.7501 19.9631C19.9247 20.5883 19.2423 20.7951 18.6983 20.7951V20.7905Z" fill="url(#paint0_linear_543_12177)"/>
</g>
<path d="M19.2419 19.3515C18.7901 19.3515 18.4074 19.2366 18.103 19.0895C16.8074 18.4644 15.9175 16.7682 15.8853 14.8791C15.8853 14.8055 15.9452 14.7458 16.019 14.7412C16.0927 14.7412 16.1527 14.8009 16.1527 14.8745C16.1803 16.6395 17.0287 18.2713 18.2183 18.8459C19.1451 19.2917 20.201 19.0987 21.2753 18.2851C22.8614 17.0808 23.8435 13.8219 23.6637 10.3515C23.6637 10.2779 23.719 10.2136 23.7928 10.209C23.8665 10.209 23.9311 10.2641 23.9357 10.3377C24.1247 13.946 23.1196 17.2233 21.4413 18.4965C20.5975 19.1355 19.8551 19.3515 19.2419 19.3515Z" fill="#50B09B"/>
<path d="M25.0746 23.819V38.7118C25.0101 39.553 25.5357 40.408 26.6515 41.0515C28.7633 42.265 32.1845 42.265 34.2962 41.0515C35.3521 40.4447 35.8777 39.6495 35.8777 38.8497V23.8145H25.07L25.0746 23.819Z" fill="#C6C6C6"/>
<path d="M34.3 21.6171C36.4118 22.8306 36.4118 24.8025 34.3 26.016C32.1883 27.2295 28.7671 27.2295 26.6553 26.016C24.5436 24.8025 24.5436 22.8306 26.6553 21.6171C28.7671 20.4037 32.1883 20.4037 34.3 21.6171Z" fill="#EDEDED"/>
<path d="M27.1681 20.459V22.7848C27.1266 23.2996 27.4494 23.8236 28.1364 24.219C29.4274 24.9636 31.5253 24.9636 32.8209 24.219C33.4664 23.8466 33.7892 23.3594 33.7892 22.8722V20.459H27.1727H27.1681Z" fill="#436975"/>
<path d="M32.8164 19.1122C34.1075 19.8568 34.1075 21.0611 32.8164 21.8058C31.5254 22.5504 29.4275 22.5504 28.1319 21.8058C26.8362 21.0611 26.8362 19.8568 28.1319 19.1122C29.4229 18.3676 31.5208 18.3676 32.8164 19.1122Z" fill="#73B4C9"/>
<path d="M34.3006 28.0523C32.1889 29.2658 28.7677 29.2658 26.6559 28.0523C25.6323 27.464 25.1067 26.6963 25.079 25.9241V36.68C25.0145 37.5212 25.5401 38.3761 26.6559 39.0197C28.7677 40.2331 32.1889 40.2331 34.3006 39.0197C35.3565 38.4129 35.8821 37.6177 35.8821 36.8179V25.8506C35.8821 26.6458 35.3519 27.441 34.3006 28.0523Z" fill="#73B4C9"/>
<path d="M34.3006 29.0823C32.1889 30.2958 28.7677 30.2958 26.6559 29.0823C25.6323 28.494 25.1067 27.7263 25.079 26.9541V35.6508C25.0145 36.4919 25.5401 37.3469 26.6559 37.9904C28.7677 39.2039 32.1889 39.2039 34.3006 37.9904C35.3565 37.3837 35.8821 36.5885 35.8821 35.7887V26.876C35.8821 27.6712 35.3519 28.4664 34.3006 29.0777V29.0823Z" fill="#436975"/>
<path d="M30.4787 38.1788C29.16 38.1788 27.9335 37.8892 27.0206 37.3652C26.2045 36.8964 25.7619 36.2896 25.808 35.7105V35.6553V29.404C25.9601 29.5143 26.1169 29.6155 26.2921 29.7166C27.4217 30.3693 28.911 30.7278 30.4787 30.7278C32.0464 30.7278 33.5357 30.3693 34.6653 29.7166C34.8405 29.6155 35.0019 29.5097 35.154 29.3994V35.7932C35.154 36.3448 34.7114 36.9194 33.9368 37.3652C33.0239 37.8892 31.7974 38.1788 30.4787 38.1788Z" fill="#73B4C9"/>
<path d="M27.6698 35.54C27.6099 35.7883 27.5499 36.0411 27.49 36.2893C28.3338 36.7765 29.4035 37.0753 30.5193 37.0707C31.6028 37.0707 32.6402 36.7857 33.4656 36.3169C33.4056 36.0686 33.3457 35.8204 33.2858 35.5722C31.7227 36.6018 29.2052 36.5881 27.6652 35.5446L27.6698 35.54Z" fill="#436975"/>
<path d="M32.2489 33.2144C32.2489 34.3635 31.4558 35.292 30.4783 35.292C29.5008 35.292 28.7078 34.3635 28.7078 33.2144C28.7078 32.0652 29.5008 31.1367 30.4783 31.1367C31.4558 31.1367 32.2489 32.0652 32.2489 33.2144Z" fill="white"/>
<path d="M32.3552 44.2599L21.1371 47.9417C20.6991 48.0842 20.072 47.9555 19.7262 47.6476L14.101 42.6373C13.7598 42.334 13.8336 41.9708 14.2716 41.8237L25.4897 38.1419C25.9277 37.9994 26.5548 38.1281 26.9006 38.4361L32.5258 43.4463C32.867 43.7497 32.7932 44.1128 32.3552 44.2599Z" fill="#6D6D6D"/>
<path d="M32.392 44.0763L21.174 47.7581C20.7359 47.9006 20.1089 47.7719 19.7631 47.464L14.1379 42.4537C13.7967 42.1504 13.8705 41.7872 14.3085 41.6402L25.5266 37.9583C25.9646 37.8158 26.5917 37.9445 26.9375 38.2525L32.5626 43.2627C32.9038 43.5661 32.8301 43.9292 32.392 44.0763Z" fill="#C0C0C0"/>
<path d="M23.465 39.1945L24.4425 38.8727C24.5116 38.8498 24.5992 38.8727 24.6868 38.9509C24.8574 39.1026 24.9589 39.4059 24.9128 39.6266C24.8897 39.7369 24.839 39.8012 24.7698 39.8288L23.7924 40.1506C23.7924 40.1506 23.7785 40.1552 23.7693 40.1552C23.5111 40.2287 23.2344 40.0862 23.1468 39.8288C23.0592 39.5622 23.2022 39.2772 23.4696 39.1899L23.465 39.1945Z" fill="white"/>
<path d="M24.6912 38.9468C24.8618 39.0985 24.9632 39.4018 24.9171 39.6225C24.8941 39.7328 24.8433 39.7971 24.7742 39.8247L25.5672 39.5627L25.9914 39.4248C25.9914 39.4248 26.0145 39.4156 26.0237 39.411C26.2681 39.3145 26.4018 39.0433 26.3234 38.7905C26.2404 38.5239 25.9545 38.3768 25.6871 38.4596L25.2445 38.6066L24.4514 38.8686C24.5206 38.8457 24.6082 38.8686 24.6958 38.9468H24.6912Z" fill="#CF4518"/>
<path d="M25.0287 40.5968L26.0062 40.2751C26.0754 40.2521 26.163 40.2751 26.2506 40.3532C26.4212 40.5049 26.5226 40.8083 26.4765 41.0289C26.4534 41.1392 26.4027 41.2036 26.3336 41.2312L25.3561 41.5529C25.3561 41.5529 25.3422 41.5575 25.333 41.5575C25.0748 41.6311 24.7982 41.4886 24.7106 41.2312C24.623 40.9646 24.7659 40.6796 25.0333 40.5922L25.0287 40.5968Z" fill="white"/>
<path d="M26.2505 40.3482C26.4211 40.4998 26.5225 40.8032 26.4764 41.0238C26.4534 41.1342 26.4027 41.1985 26.3335 41.2261L27.1266 40.9641L27.5507 40.8262C27.5507 40.8262 27.5738 40.817 27.583 40.8124C27.8274 40.7159 27.9611 40.4447 27.8827 40.1919C27.7997 39.9253 27.5139 39.7782 27.2464 39.8609L26.8038 40.008L26.0107 40.27C26.0799 40.247 26.1675 40.27 26.2551 40.3482H26.2505Z" fill="#CF4518"/>
<path d="M26.5912 41.9992L27.5687 41.6774C27.6379 41.6544 27.7255 41.6774 27.8131 41.7556C27.9837 41.9073 28.0851 42.2106 28.039 42.4313C28.0159 42.5416 27.9652 42.6059 27.8961 42.6335L26.9186 42.9553C26.9186 42.9553 26.9047 42.9599 26.8955 42.9599C26.6373 43.0334 26.3607 42.8909 26.2731 42.6335C26.1855 42.3669 26.3284 42.0819 26.5958 41.9946L26.5912 41.9992Z" fill="white"/>
<path d="M27.813 41.7554C27.9836 41.9071 28.085 42.2104 28.0389 42.4311C28.0159 42.5414 27.9652 42.6057 27.896 42.6333L28.6891 42.3713L29.1132 42.2334C29.1132 42.2334 29.1363 42.2242 29.1455 42.2196C29.3899 42.1231 29.5236 41.8519 29.4452 41.5991C29.3622 41.3325 29.0764 41.1854 28.8089 41.2681L28.3663 41.4152L27.5732 41.6772C27.6424 41.6543 27.73 41.6772 27.8176 41.7554H27.813Z" fill="#CF4518"/>
<path d="M28.1552 43.4054L29.1327 43.0837C29.2018 43.0607 29.2894 43.0837 29.377 43.1618C29.5476 43.3135 29.6491 43.6169 29.603 43.8375C29.5799 43.9478 29.5292 44.0122 29.46 44.0398L28.4825 44.3615C28.4825 44.3615 28.4687 44.3661 28.4595 44.3661C28.2013 44.4397 27.9246 44.2972 27.837 44.0398C27.7494 43.7732 27.8924 43.4882 28.1598 43.4008L28.1552 43.4054Z" fill="white"/>
<path d="M29.377 43.1567C29.5476 43.3084 29.649 43.6118 29.6029 43.8324C29.5798 43.9428 29.5291 44.0071 29.46 44.0347L30.253 43.7727L30.6772 43.6348C30.6772 43.6348 30.7003 43.6256 30.7095 43.621C30.9539 43.5245 31.0876 43.2533 31.0092 43.0005C30.9262 42.7339 30.6403 42.5868 30.3729 42.6695L29.9303 42.8166L29.1372 43.0786C29.2064 43.0556 29.294 43.0786 29.3816 43.1567H29.377Z" fill="#CF4518"/>
<path d="M19.7816 40.4084L20.7591 40.0866C20.8283 40.0636 20.9159 40.0866 21.0035 40.1647C21.1741 40.3164 21.2755 40.6198 21.2294 40.8404C21.2064 40.9508 21.1557 41.0151 21.0865 41.0427L20.109 41.3644C20.109 41.3644 20.0952 41.369 20.0859 41.369C19.8277 41.4426 19.5511 41.3001 19.4635 41.0427C19.3759 40.7761 19.5188 40.4911 19.7862 40.4038L19.7816 40.4084Z" fill="white"/>
<path d="M21.0034 40.1646C21.174 40.3162 21.2755 40.6196 21.2294 40.8402C21.2063 40.9506 21.1556 41.0149 21.0864 41.0425L21.8795 40.7805L22.3037 40.6426C22.3037 40.6426 22.3267 40.6334 22.336 40.6288C22.5803 40.5323 22.714 40.2611 22.6357 40.0083C22.5527 39.7417 22.2668 39.5946 21.9994 39.6773L21.5567 39.8244L20.7637 40.0864C20.8328 40.0634 20.9204 40.0864 21.008 40.1646H21.0034Z" fill="#CF4518"/>
<path d="M21.3456 41.8156L22.3231 41.4938C22.3923 41.4708 22.4799 41.4938 22.5675 41.572C22.7381 41.7237 22.8395 42.027 22.7934 42.2477C22.7703 42.358 22.7196 42.4223 22.6505 42.4499L21.673 42.7717C21.673 42.7717 21.6591 42.7763 21.6499 42.7763C21.3917 42.8498 21.1151 42.7073 21.0275 42.4499C20.9399 42.1833 21.0828 41.8983 21.3502 41.811L21.3456 41.8156Z" fill="white"/>
<path d="M22.5674 41.5669C22.738 41.7186 22.8394 42.022 22.7933 42.2426C22.7703 42.3529 22.7196 42.4173 22.6504 42.4448L23.4434 42.1828L23.8676 42.0449C23.8676 42.0449 23.8907 42.0357 23.8999 42.0312C24.1443 41.9346 24.278 41.6634 24.1996 41.4106C24.1166 41.144 23.8308 40.9969 23.5633 41.0797L23.1207 41.2268L22.3276 41.4888C22.3968 41.4658 22.4844 41.4888 22.572 41.5669H22.5674Z" fill="#CF4518"/>
<path d="M22.9081 43.217L23.8856 42.8952C23.9548 42.8722 24.0424 42.8952 24.13 42.9733C24.3006 43.125 24.402 43.4284 24.3559 43.649C24.3328 43.7593 24.2821 43.8237 24.213 43.8513L23.2355 44.173C23.2355 44.173 23.2216 44.1776 23.2124 44.1776C22.9542 44.2512 22.6776 44.1087 22.59 43.8513C22.5024 43.5847 22.6453 43.2997 22.9127 43.2124L22.9081 43.217Z" fill="white"/>
<path d="M24.1299 42.9683C24.3005 43.12 24.4019 43.4233 24.3558 43.644C24.3328 43.7543 24.2821 43.8186 24.2129 43.8462L25.0059 43.5842L25.4301 43.4463C25.4301 43.4463 25.4532 43.4371 25.4624 43.4325C25.7068 43.336 25.8405 43.0648 25.7621 42.812C25.6791 42.5454 25.3933 42.3983 25.1258 42.481L24.6832 42.6281L23.8901 42.8901C23.9593 42.8671 24.0469 42.8901 24.1345 42.9683H24.1299Z" fill="#CF4518"/>
<path d="M24.4667 44.6183L25.4442 44.2966C25.5133 44.2736 25.6009 44.2966 25.6886 44.3747C25.8592 44.5264 25.9606 44.8298 25.9145 45.0504C25.8914 45.1607 25.8407 45.2251 25.7715 45.2526L24.7941 45.5744C24.7941 45.5744 24.7802 45.579 24.771 45.579C24.5128 45.6525 24.2362 45.51 24.1485 45.2526C24.0609 44.986 24.2039 44.7011 24.4713 44.6137L24.4667 44.6183Z" fill="white"/>
<path d="M25.6885 44.3745C25.8591 44.5262 25.9605 44.8296 25.9144 45.0502C25.8914 45.1605 25.8406 45.2249 25.7715 45.2525L26.5645 44.9905L26.9887 44.8526C26.9887 44.8526 27.0118 44.8434 27.021 44.8388C27.2654 44.7422 27.3991 44.471 27.3207 44.2182C27.2377 43.9516 26.9518 43.8045 26.6844 43.8873L26.2418 44.0344L25.4487 44.2964C25.5179 44.2734 25.6055 44.2964 25.6931 44.3745H25.6885Z" fill="#CF4518"/>
<path d="M16.0983 41.6261L17.0758 41.3044C17.1449 41.2814 17.2325 41.3044 17.3201 41.3825C17.4907 41.5342 17.5922 41.8376 17.5461 42.0582C17.523 42.1685 17.4723 42.2329 17.4031 42.2605L16.4257 42.5822C16.4257 42.5822 16.4118 42.5868 16.4026 42.5868C16.1444 42.6604 15.8677 42.5179 15.7801 42.2605C15.6925 41.9939 15.8355 41.7089 16.1029 41.6215L16.0983 41.6261Z" fill="white"/>
<path d="M17.3211 41.3784C17.4917 41.5301 17.5931 41.8335 17.547 42.0541C17.5239 42.1644 17.4732 42.2288 17.4041 42.2564L18.1971 41.9944L18.6213 41.8565C18.6213 41.8565 18.6444 41.8473 18.6536 41.8427C18.898 41.7461 19.0317 41.475 18.9533 41.2221C18.8703 40.9555 18.5844 40.8085 18.317 40.8912L17.8744 41.0383L17.0813 41.3003C17.1505 41.2773 17.2381 41.3003 17.3257 41.3784H17.3211Z" fill="#CF4518"/>
<path d="M17.661 43.0285L18.6385 42.7067C18.7077 42.6837 18.7953 42.7067 18.8829 42.7849C19.0535 42.9365 19.1549 43.2399 19.1088 43.4606C19.0858 43.5709 19.035 43.6352 18.9659 43.6628L17.9884 43.9846C17.9884 43.9846 17.9746 43.9892 17.9653 43.9892C17.7071 44.0627 17.4305 43.9202 17.3429 43.6628C17.2553 43.3962 17.3982 43.1112 17.6656 43.0239L17.661 43.0285Z" fill="white"/>
<path d="M18.8838 42.7847C19.0544 42.9364 19.1558 43.2397 19.1097 43.4604C19.0867 43.5707 19.036 43.635 18.9668 43.6626L19.7599 43.4006L20.184 43.2627C20.184 43.2627 20.2071 43.2535 20.2163 43.2489C20.4607 43.1524 20.5944 42.8812 20.516 42.6284C20.433 42.3618 20.1472 42.2147 19.8797 42.2974L19.4371 42.4445L18.644 42.7065C18.7132 42.6836 18.8008 42.7065 18.8884 42.7847H18.8838Z" fill="#CF4518"/>
<path d="M19.2196 44.4308L20.1971 44.1091C20.2663 44.0861 20.3539 44.1091 20.4415 44.1872C20.6121 44.3389 20.7135 44.6423 20.6674 44.8629C20.6444 44.9732 20.5936 45.0376 20.5245 45.0651L19.547 45.3869C19.547 45.3869 19.5332 45.3915 19.5239 45.3915C19.2657 45.465 18.9891 45.3226 18.9015 45.0651C18.8139 44.7985 18.9568 44.5136 19.2242 44.4262L19.2196 44.4308Z" fill="white"/>
<path d="M20.4414 44.187C20.612 44.3387 20.7135 44.6421 20.6673 44.8627C20.6443 44.973 20.5936 45.0374 20.5244 45.065L21.3175 44.803L21.7417 44.6651C21.7417 44.6651 21.7647 44.6559 21.7739 44.6513C22.0183 44.5547 22.152 44.2835 22.0736 44.0307C21.9906 43.7641 21.7048 43.617 21.4374 43.6998L20.9947 43.8469L20.2017 44.1089C20.2708 44.0859 20.3584 44.1089 20.446 44.187H20.4414Z" fill="#CF4518"/>
<path d="M20.7833 45.8371L21.7608 45.5153C21.83 45.4923 21.9176 45.5153 22.0052 45.5935C22.1758 45.7451 22.2772 46.0485 22.2311 46.2692C22.2081 46.3795 22.1574 46.4438 22.0882 46.4714L21.1107 46.7932C21.1107 46.7932 21.0969 46.7977 21.0877 46.7977C20.8295 46.8713 20.5528 46.7288 20.4652 46.4714C20.3776 46.2048 20.5205 45.9198 20.788 45.8325L20.7833 45.8371Z" fill="white"/>
<path d="M22.0051 45.5884C22.1757 45.7401 22.2772 46.0434 22.2311 46.2641C22.208 46.3744 22.1573 46.4387 22.0881 46.4663L22.8812 46.2043L23.3054 46.0664C23.3054 46.0664 23.3284 46.0572 23.3377 46.0526C23.582 45.9561 23.7157 45.6849 23.6374 45.4321C23.5544 45.1655 23.2685 45.0184 23.0011 45.1012L22.5584 45.2482L21.7654 45.5102C21.8345 45.4873 21.9221 45.5102 22.0098 45.5884H22.0051Z" fill="#CF4518"/>
<path d="M30.7684 40.413L20.5417 46.3012C20.1451 46.531 19.4996 46.531 19.1031 46.3012L12.5696 42.5412C12.1731 42.3114 12.1731 41.9391 12.5696 41.7139L22.7964 35.8257C23.1929 35.5959 23.8384 35.5959 24.2349 35.8257L30.7684 39.5857C31.1649 39.8155 31.1649 40.1878 30.7684 40.413Z" fill="#878787"/>
<path d="M30.7687 40.2246L20.5419 46.1127C20.1454 46.3425 19.4999 46.3425 19.1034 46.1127L12.5699 42.3528C12.1733 42.1229 12.1733 41.7506 12.5699 41.5254L22.7966 35.6372C23.1931 35.4074 23.8386 35.4074 24.2352 35.6372L30.7687 39.3972C31.1652 39.627 31.1652 39.9993 30.7687 40.2246Z" fill="#DADADA"/>
<path d="M21.0311 37.2593L21.9256 36.7445C21.9902 36.7077 22.0778 36.7123 22.1792 36.7674C22.3775 36.8824 22.5389 37.1582 22.5389 37.3834C22.5389 37.4937 22.502 37.5718 22.4374 37.6086L21.5429 38.1234C21.5429 38.1234 21.5291 38.1326 21.5199 38.1326C21.2801 38.2613 20.9804 38.174 20.8421 37.9396C20.7038 37.7005 20.7868 37.388 21.0265 37.2501L21.0311 37.2593Z" fill="white"/>
<path d="M22.175 36.7675C22.3732 36.8824 22.5346 37.1582 22.5346 37.3834C22.5346 37.4938 22.4977 37.5719 22.4332 37.6087L23.1571 37.1904L23.5444 36.9698C23.5444 36.9698 23.5628 36.956 23.572 36.9514C23.7934 36.8089 23.8671 36.5147 23.738 36.2849C23.5997 36.0413 23.2954 35.9539 23.051 36.0918L22.6453 36.3262L21.9214 36.7445C21.9859 36.7078 22.0735 36.7124 22.175 36.7675Z" fill="#E94E1B"/>
<path d="M22.8478 38.313L23.7423 37.7982C23.8068 37.7614 23.8944 37.766 23.9959 37.8212C24.1941 37.9361 24.3555 38.2119 24.3555 38.4371C24.3555 38.5474 24.3186 38.6256 24.2541 38.6623L23.3596 39.1771C23.3596 39.1771 23.3458 39.1863 23.3365 39.1863C23.0968 39.315 22.7971 39.2277 22.6588 38.9933C22.5204 38.7497 22.6034 38.4417 22.8432 38.3038L22.8478 38.313Z" fill="white"/>
<path d="M23.9916 37.8251C24.1899 37.94 24.3513 38.2158 24.3513 38.4411C24.3513 38.5514 24.3144 38.6295 24.2498 38.6663L24.9737 38.248L25.361 38.0274C25.361 38.0274 25.3795 38.0136 25.3887 38.009C25.61 37.8665 25.6838 37.5723 25.5547 37.3425C25.4164 37.0989 25.1121 37.0115 24.8677 37.1494L24.4619 37.3839L23.738 37.8021C23.8026 37.7654 23.8902 37.77 23.9916 37.8251Z" fill="#E94E1B"/>
<path d="M24.6603 39.3696L25.5548 38.8548C25.6193 38.818 25.7069 38.8226 25.8084 38.8778C26.0066 38.9927 26.168 39.2685 26.168 39.4937C26.168 39.6041 26.1311 39.6822 26.0666 39.719L25.1721 40.2338C25.1721 40.2338 25.1583 40.243 25.149 40.243C24.9093 40.3717 24.6096 40.2843 24.4713 40.0499C24.3329 39.8109 24.4159 39.4983 24.6557 39.3604L24.6603 39.3696Z" fill="white"/>
<path d="M25.8085 38.8818C26.0068 38.9967 26.1682 39.2725 26.1682 39.4977C26.1682 39.608 26.1313 39.6862 26.0667 39.7229L26.7906 39.3046L27.1779 39.084C27.1779 39.084 27.1964 39.0702 27.2056 39.0656C27.4269 38.9231 27.5007 38.629 27.3716 38.3991C27.2333 38.1555 26.9289 38.0682 26.6846 38.2061L26.2788 38.4405L25.5549 38.8588C25.6195 38.822 25.7071 38.8266 25.8085 38.8818Z" fill="#E94E1B"/>
<path d="M26.4767 40.4263L27.3712 39.9115C27.4357 39.8747 27.5234 39.8793 27.6248 39.9344C27.8231 40.0494 27.9844 40.3251 27.9844 40.5504C27.9844 40.6607 27.9475 40.7388 27.883 40.7756L26.9885 41.2904C26.9885 41.2904 26.9747 41.2996 26.9654 41.2996C26.7257 41.4283 26.426 41.341 26.2877 41.1066C26.1493 40.8629 26.2323 40.555 26.4721 40.4171L26.4767 40.4263Z" fill="white"/>
<path d="M27.6249 39.9394C27.8232 40.0543 27.9846 40.3301 27.9846 40.5553C27.9846 40.6656 27.9477 40.7438 27.8831 40.7806L28.607 40.3623L28.9943 40.1416C28.9943 40.1416 29.0128 40.1278 29.022 40.1232C29.2433 39.9808 29.3171 39.6866 29.188 39.4567C29.0497 39.2131 28.7454 39.1258 28.501 39.2637L28.0952 39.4981L27.3713 39.9164C27.4359 39.8796 27.5235 39.8842 27.6249 39.9394Z" fill="#E94E1B"/>
<path d="M17.6706 39.1987L18.565 38.6839C18.6296 38.6471 18.7172 38.6517 18.8186 38.7069C19.0169 38.8218 19.1783 39.0976 19.1783 39.3228C19.1783 39.4332 19.1414 39.5113 19.0768 39.5481L18.1823 40.0629C18.1823 40.0629 18.1685 40.0721 18.1593 40.0721C17.9195 40.2008 17.6198 40.1134 17.4815 39.879C17.3432 39.6354 17.4262 39.3274 17.6659 39.1895L17.6706 39.1987Z" fill="white"/>
<path d="M18.8188 38.707C19.017 38.8219 19.1784 39.0977 19.1784 39.3229C19.1784 39.4332 19.1415 39.5114 19.077 39.5481L19.8009 39.1298L20.1882 38.9092C20.1882 38.9092 20.2066 38.8954 20.2159 38.8908C20.4372 38.7483 20.5109 38.4542 20.3818 38.2243C20.2435 37.9807 19.9392 37.8934 19.6948 38.0313L19.2891 38.2657L18.5652 38.684C18.6297 38.6472 18.7173 38.6518 18.8188 38.707Z" fill="#E94E1B"/>
<path d="M19.487 40.2515L20.3815 39.7367C20.446 39.6999 20.5336 39.7045 20.635 39.7596C20.8333 39.8745 20.9947 40.1503 20.9947 40.3756C20.9947 40.4859 20.9578 40.564 20.8933 40.6008L19.9988 41.1156C19.9988 41.1156 19.9849 41.1248 19.9757 41.1248C19.7359 41.2535 19.4362 41.1662 19.2979 40.9318C19.1596 40.6927 19.2426 40.3802 19.4823 40.2423L19.487 40.2515Z" fill="white"/>
<path d="M20.6352 39.7646C20.8334 39.8795 20.9948 40.1553 20.9948 40.3805C20.9948 40.4908 20.9579 40.569 20.8934 40.6057L21.6173 40.1875L22.0046 39.9668C22.0046 39.9668 22.023 39.953 22.0323 39.9484C22.2536 39.806 22.3273 39.5118 22.1982 39.2819C22.0599 39.0383 21.7556 38.951 21.5112 39.0889L21.1055 39.3233L20.3816 39.7416C20.4461 39.7048 20.5337 39.7094 20.6352 39.7646Z" fill="#E94E1B"/>
<path d="M21.3034 41.3081L22.1979 40.7933C22.2624 40.7565 22.35 40.7611 22.4515 40.8163C22.6497 40.9312 22.8111 41.207 22.8111 41.4322C22.8111 41.5425 22.7742 41.6207 22.7097 41.6574L21.8152 42.1723C21.8152 42.1723 21.8013 42.1814 21.7921 42.1814C21.5523 42.3101 21.2526 42.2228 21.1143 41.9884C20.976 41.7448 21.059 41.4368 21.2988 41.2989L21.3034 41.3081Z" fill="white"/>
<path d="M22.4516 40.8212C22.6499 40.9361 22.8112 41.2119 22.8112 41.4372C22.8112 41.5475 22.7743 41.6256 22.7098 41.6624L23.4337 41.2441L23.821 41.0235C23.821 41.0235 23.8394 41.0097 23.8487 41.0051C24.07 40.8626 24.1438 40.5684 24.0147 40.3386C23.8763 40.095 23.572 40.0076 23.3276 40.1455L22.9219 40.38L22.198 40.7982C22.2625 40.7615 22.3502 40.7661 22.4516 40.8212Z" fill="#E94E1B"/>
<path d="M23.1198 42.3657L24.0143 41.8509C24.0788 41.8141 24.1664 41.8187 24.2679 41.8739C24.4661 41.9888 24.6275 42.2646 24.6275 42.4898C24.6275 42.6001 24.5906 42.6783 24.5261 42.7151L23.6316 43.2299C23.6316 43.2299 23.6177 43.2391 23.6085 43.2391C23.3688 43.3678 23.0691 43.2804 22.9307 43.046C22.7924 42.807 22.8754 42.4944 23.1152 42.3565L23.1198 42.3657Z" fill="white"/>
<path d="M24.2636 41.8779C24.4619 41.9928 24.6232 42.2686 24.6232 42.4938C24.6232 42.6041 24.5864 42.6823 24.5218 42.719L25.2457 42.3007L25.633 42.0801C25.633 42.0801 25.6515 42.0663 25.6607 42.0617C25.882 41.9192 25.9558 41.6251 25.8267 41.3952C25.6883 41.1516 25.384 41.0643 25.1397 41.2022L24.7339 41.4366L24.01 41.8549C24.0746 41.8181 24.1622 41.8227 24.2636 41.8779Z" fill="#E94E1B"/>
<path d="M14.3139 41.1392L15.2084 40.6243C15.2729 40.5876 15.3605 40.5922 15.4619 40.6473C15.6602 40.7622 15.8216 41.038 15.8216 41.2633C15.8216 41.3736 15.7847 41.4517 15.7202 41.4885L14.8257 42.0033C14.8257 42.0033 14.8118 42.0125 14.8026 42.0125C14.5628 42.1412 14.2631 42.0539 14.1248 41.8195C13.9865 41.5804 14.0695 41.2679 14.3093 41.13L14.3139 41.1392Z" fill="white"/>
<path d="M15.4577 40.6474C15.656 40.7623 15.8173 41.0381 15.8173 41.2633C15.8173 41.3736 15.7805 41.4518 15.7159 41.4886L16.4398 41.0703L16.8271 40.8496C16.8271 40.8496 16.8455 40.8359 16.8548 40.8313C17.0761 40.6888 17.1499 40.3946 17.0208 40.1648C16.8824 39.9211 16.5781 39.8338 16.3337 39.9717L15.928 40.2061L15.2041 40.6244C15.2687 40.5876 15.3563 40.5922 15.4577 40.6474Z" fill="#E94E1B"/>
<path d="M16.1293 42.1968L17.0238 41.682C17.0883 41.6452 17.1759 41.6498 17.2774 41.7049C17.4756 41.8199 17.637 42.0957 17.637 42.3209C17.637 42.4312 17.6001 42.5093 17.5356 42.5461L16.6411 43.0609C16.6411 43.0609 16.6273 43.0701 16.618 43.0701C16.3783 43.1988 16.0786 43.1115 15.9402 42.8771C15.8019 42.6334 15.8849 42.3255 16.1247 42.1876L16.1293 42.1968Z" fill="white"/>
<path d="M17.2731 41.705C17.4714 41.8199 17.6328 42.0957 17.6328 42.3209C17.6328 42.4313 17.5959 42.5094 17.5313 42.5462L18.2552 42.1279L18.6425 41.9073C18.6425 41.9073 18.661 41.8935 18.6702 41.8889C18.8915 41.7464 18.9653 41.4522 18.8362 41.2224C18.6979 40.9788 18.3935 40.8914 18.1492 41.0293L17.7434 41.2637L17.0195 41.682C17.0841 41.6453 17.1717 41.6499 17.2731 41.705Z" fill="#E94E1B"/>
<path d="M17.9418 43.2495L18.8363 42.7347C18.9008 42.6979 18.9884 42.7025 19.0899 42.7577C19.2881 42.8726 19.4495 43.1484 19.4495 43.3736C19.4495 43.4839 19.4126 43.5621 19.3481 43.5988L18.4536 44.1137C18.4536 44.1137 18.4398 44.1229 18.4305 44.1229C18.1908 44.2516 17.8911 44.1642 17.7527 43.9298C17.6144 43.6908 17.6974 43.3782 17.9372 43.2403L17.9418 43.2495Z" fill="white"/>
<path d="M19.09 42.7616C19.2883 42.8766 19.4497 43.1524 19.4497 43.3776C19.4497 43.4879 19.4128 43.566 19.3482 43.6028L20.0721 43.1845L20.4594 42.9639C20.4594 42.9639 20.4779 42.9501 20.4871 42.9455C20.7084 42.803 20.7822 42.5088 20.6531 42.279C20.5148 42.0354 20.2104 41.9481 19.9661 42.086L19.5603 42.3204L18.8364 42.7387C18.901 42.7019 18.9886 42.7065 19.09 42.7616Z" fill="#E94E1B"/>
<path d="M19.7592 44.3062L20.6537 43.7913C20.7182 43.7546 20.8058 43.7592 20.9073 43.8143C21.1055 43.9292 21.2669 44.205 21.2669 44.4303C21.2669 44.5406 21.23 44.6187 21.1655 44.6555L20.271 45.1703C20.271 45.1703 20.2571 45.1795 20.2479 45.1795C20.0082 45.3082 19.7085 45.2209 19.5701 44.9864C19.4318 44.7428 19.5148 44.4349 19.7546 44.297L19.7592 44.3062Z" fill="white"/>
<path d="M20.9074 43.8193C21.1057 43.9342 21.267 44.21 21.267 44.4352C21.267 44.5455 21.2302 44.6237 21.1656 44.6604L21.8895 44.2421L22.2768 44.0215C22.2768 44.0215 22.2953 44.0077 22.3045 44.0031C22.5258 43.8606 22.5996 43.5665 22.4705 43.3366C22.3321 43.093 22.0278 43.0057 21.7835 43.1436L21.3777 43.378L20.6538 43.7963C20.7184 43.7595 20.806 43.7641 20.9074 43.8193Z" fill="#E94E1B"/>
<defs>
<linearGradient id="paint0_linear_543_12177" x1="15.8764" y1="15.4999" x2="23.9499" y2="15.4999" gradientUnits="userSpaceOnUse">
<stop stop-color="#E0E0E0"/>
<stop offset="0.26" stop-color="#F4F4F4"/>
<stop offset="0.46" stop-color="white"/>
<stop offset="0.65" stop-color="#FAFAFA"/>
<stop offset="0.85" stop-color="#EEEEEE"/>
<stop offset="1" stop-color="#E0E0E0"/>
</linearGradient>
</defs>
</svg>
