<svg width="30" height="29" viewBox="0 0 30 29" fill="none" xmlns="http://www.w3.org/2000/svg">
<path d="M14.2287 14.3671C16.8981 14.3671 19.0621 12.2031 19.0621 9.53377C19.0621 6.8644 16.8981 4.70044 14.2287 4.70044C11.5594 4.70044 9.39541 6.8644 9.39541 9.53377C9.39541 12.2031 11.5594 14.3671 14.2287 14.3671Z" stroke="black" stroke-linecap="round" stroke-linejoin="round"/>
<path d="M19.7267 24.2634C20.3611 24.2498 20.9809 24.0699 21.524 23.7417C22.0671 23.4135 22.5146 22.9485 22.8216 22.3931C23.1286 21.8378 23.2845 21.2115 23.2736 20.577C23.2627 19.9425 23.0855 19.322 22.7596 18.7775C21.8995 17.4199 20.7102 16.3018 19.3022 15.527C17.8942 14.7523 16.3132 14.346 14.7061 14.346C13.099 14.346 11.5179 14.7523 10.1099 15.527C8.7019 16.3018 7.5126 17.4199 6.65252 18.7775C6.32662 19.322 6.14935 19.9425 6.13847 20.577C6.12759 21.2115 6.28345 21.8378 6.59049 22.3931C6.89753 22.9485 7.34498 23.4135 7.8881 23.7417C8.43122 24.0699 9.05097 24.2498 9.68541 24.2634H19.7267Z" stroke="black" stroke-linecap="round" stroke-linejoin="round"/>
</svg>
