<svg width="17" height="17" viewBox="0 0 17 17" fill="none" xmlns="http://www.w3.org/2000/svg">
<path fill-rule="evenodd" clip-rule="evenodd" d="M4.38454 2.8944C3.04711 4.22353 2.73599 5.57638 3.01643 6.9234C3.31286 8.34722 4.2982 9.87748 5.79871 11.3782C7.29927 12.879 8.82937 13.8655 10.254 14.1639C11.6027 14.4464 12.9571 14.1373 14.2887 12.804C14.3097 12.783 14.3316 12.7629 14.3543 12.7439C14.3546 12.7436 14.3555 12.7429 14.3562 12.7423L14.3618 12.7373C14.3668 12.7328 14.3732 12.7268 14.3813 12.7192C14.3976 12.7037 14.4177 12.6839 14.4408 12.6601C14.4875 12.6121 14.5401 12.5548 14.5912 12.4954C14.6429 12.4353 14.687 12.3802 14.719 12.3363C14.7324 12.318 14.7408 12.3056 14.7454 12.2986C14.7746 12.2298 14.7898 12.1557 14.7898 12.0807C14.7898 11.9993 14.7719 11.9188 14.7375 11.845C14.703 11.7712 14.6529 11.706 14.5906 11.6538C14.5679 11.6348 14.5461 11.6149 14.5252 11.5939L13.3821 10.45C13.1754 10.2432 13.0472 10.1884 12.9988 10.1739C12.9663 10.1642 12.9401 10.1616 12.8829 10.1808C12.8063 10.2065 12.689 10.2689 12.5161 10.4049C12.3451 10.5394 12.1674 10.7068 11.9499 10.9151C11.4474 11.4134 10.7683 11.6933 10.0602 11.6933C9.34799 11.6933 8.66513 11.4102 8.16175 10.9065L6.29071 9.03421C6.29063 9.03413 6.29078 9.03428 6.29071 9.03421C5.88495 8.62839 5.47025 8.05433 5.40839 7.31971C5.34291 6.54216 5.68986 5.8371 6.29038 5.23645C6.29027 5.23656 6.29049 5.23634 6.29038 5.23645L6.74607 4.78034C6.87433 4.65169 6.9468 4.47691 6.9468 4.29487C6.9468 4.07719 6.88745 3.95097 6.78266 3.84599L5.59196 2.65446C5.474 2.53641 5.38129 2.494 5.32032 2.47648C5.25715 2.45832 5.18237 2.45396 5.08655 2.47358C4.87333 2.51726 4.61104 2.67102 4.38454 2.8944ZM4.68525 0.514259C5.45973 0.355633 6.30398 0.537554 7.00667 1.24074L8.19776 2.43267C8.72431 2.96018 8.9468 3.61859 8.9468 4.29487C8.9468 5.00666 8.66445 5.68947 8.16157 6.19327L7.70524 6.65001C7.38567 6.96958 7.39928 7.12852 7.40126 7.15101C7.40124 7.15075 7.40129 7.15133 7.40126 7.15101C7.40647 7.21288 7.45432 7.36939 7.70492 7.61999L9.57639 9.49272C9.70482 9.62123 9.87885 9.69329 10.0602 9.69329C10.2415 9.69329 10.4155 9.62123 10.5439 9.49272L10.5595 9.47749C10.5755 9.46218 10.5918 9.44649 10.6085 9.43046C10.9924 9.0619 11.5632 8.51383 12.2472 8.28451C12.6489 8.14984 13.0991 8.11655 13.5713 8.25759C14.0275 8.39388 14.432 8.67123 14.7968 9.03634L15.9124 10.1527C16.1815 10.3871 16.3986 10.6753 16.5497 10.999C16.7078 11.3377 16.7898 11.7069 16.7898 12.0807C16.7898 12.4545 16.7078 12.8238 16.5497 13.1625C16.437 13.4039 16.2338 13.6527 16.1073 13.7998C15.976 13.9524 15.8157 14.1222 15.6767 14.2444C13.8976 16.0106 11.8753 16.5469 9.84401 16.1214C7.87833 15.7097 6.0147 14.4229 4.38438 12.7923C2.75402 11.1617 1.46774 9.29715 1.05842 7.33105C0.633177 5.28852 1.18192 3.25671 2.97614 1.4744L2.97822 1.47233C3.37855 1.07698 3.97256 0.660229 4.68525 0.514259Z" fill="#101828"/>
</svg>
